# xmcd CD database file
#
# Track frame offsets:
#	150
#	21114
#	38523
#	58986
#	75884
#	100617
#	114651
#	133860
#	155463
#	175444
#	194733
#	215426
#	233120
#	255657
#	273741
#	292440
#	314225
#	331043
#
# Disc length: 4676 seconds
#
# Revision: 4
# Processed by: cddbd v1.5.2PL0 Copyright (c) Steve Scherf et al.
# Submitted via: CDex 1.51
#
DISCID=11124212
DTITLE=Various Artist - Zoom-TP90-D-10
DYEAR=1900
DGENRE=Blues
TTITLE0=Steps - Tragedy
TTITLE1=Chumbawamba - Tubthumping (duet version)
TTITLE2=Spin Doctors - Two Princes
TTITLE3=E.M.F - Unbelievable
TTITLE4=Madonna - Vogue
TTITLE5=The Spice Girls - Wanna Be
TTITLE6=Haddaway - What Is Love
TTITLE7=Oasis - Whatever
TTITLE8=4 Non Blondes - What's Up
TTITLE9=Diana Ross - When You Tell Me That You Love Me
TTITLE10=No Mercy - Where Do You Go
TTITLE11=The Spice Girls - Who Do You Think You Are
TTITLE12=Chris Isaak - Wicked Game
TTITLE13=Oasis - Wonderwall
TTITLE14=Boyzone - Words
TTITLE15=Curtis Stigers - You're All That Matters To Me
TTITLE16=Babybird - You're Gorgeous
TTITLE17=The Cranberries - Zombie
EXTD=
EXTT0=
EXTT1=
EXTT2=
EXTT3=
EXTT4=
EXTT5=
EXTT6=
EXTT7=
EXTT8=
EXTT9=
EXTT10=
EXTT11=
EXTT12=
EXTT13=
EXTT14=
EXTT15=
EXTT16=
EXTT17=
PLAYORDER=
